<svg width="192" height="76" viewBox="0 0 192 76" fill="none" xmlns="http://www.w3.org/2000/svg">
<path d="M120.971 66.3711C122.273 66.3711 123.625 66.7221 124.276 68.0244L123.024 68.6748C122.724 68.174 121.922 67.7236 121.021 67.7236C119.819 67.7236 119.268 68.2243 119.268 68.8252C119.268 69.5766 120.169 69.7777 121.171 69.8779C122.924 70.1284 124.577 70.5787 124.577 72.582C124.577 74.4855 122.924 75.2871 121.021 75.2871C119.317 75.2871 117.965 74.7862 117.364 73.2334L118.666 72.5322C119.017 73.4839 120.019 73.8848 121.021 73.8848C122.022 73.8848 122.974 73.5342 122.975 72.6328C122.975 71.8314 122.123 71.4801 121.021 71.3799C119.317 71.1795 117.715 70.7286 117.715 68.8252C117.715 67.0722 119.418 66.3711 120.971 66.3711ZM133.543 66.4717C136.448 66.4717 137.902 68.6756 137.852 70.9297C137.851 73.0835 136.548 75.2871 133.543 75.2871C130.538 75.2869 129.186 73.1335 129.186 70.9297C129.186 68.6757 130.638 66.4719 133.543 66.4717ZM37.0674 66.6211L39.0215 72.7324L41.0752 66.6211H42.127L44.2305 72.7324L46.1338 66.6211H47.9375L44.9316 75.0869H43.5791L42.5273 72.4316L41.626 69.7773L40.7246 72.4824L39.7227 75.0869H38.3701L35.2646 66.6211H37.0674ZM56.6035 66.6211V68.124H51.8945V70.0781H56.4531V71.5801H51.8945V73.4844H56.6035V75.0869H50.292V66.6211H56.6035ZM74.5361 66.6211C76.5396 66.6212 77.5918 67.9742 77.5918 69.4268C77.5918 70.5788 77.0403 71.7805 75.4375 72.0811L77.9922 74.9365H78.042V75.0869H76.1387L73.6846 72.2822H72.1318V75.0869H70.5283V66.6211H74.5361ZM84.6543 66.6211L88.4609 75.0371H86.708L85.957 73.4844H81.5488L80.8477 75.0869H79.1445L82.9014 66.6211H84.6543ZM92.0674 66.6211V75.0869H90.5146V66.6211H92.0674ZM96.376 66.6211L100.483 71.8311V66.6211H102.086V75.0869H101.084L96.6758 69.377V75.0869H95.0732V66.6211H96.376ZM141.908 66.6211L146.017 71.8311V66.6211H147.619V75.0869H146.617L142.209 69.377V75.0869H140.606V66.6211H141.908ZM156.735 66.6211V68.124H152.027V70.0781H156.585V71.5801H152.027V73.4844H156.735V75.0869H150.424V66.6211H156.735ZM68.124 66.6211V68.0244H65.4697V75.0371H63.8662V68.0742H61.2119V66.6211H68.124ZM112.055 66.5713L115.812 75.0371H114.058L113.356 73.4336H108.948L108.247 75.0371H106.544L110.301 66.5713H112.055ZM133.543 67.9238C131.59 67.9241 130.738 69.5272 130.788 70.9297C130.788 72.282 131.54 73.784 133.543 73.7842C135.546 73.7842 136.299 72.3321 136.299 70.9297C136.349 69.5271 135.547 67.9238 133.543 67.9238ZM192 73.4844H162.045V69.627H188.143V3.90723H3.90723V69.627H29.9551V73.4844H0V0H192V73.4844ZM82.2002 71.9814H85.3555L83.7529 68.375L82.2002 71.9814ZM109.55 71.9814H112.705L111.103 68.375L109.55 71.9814ZM72.1318 68.0742V70.7793H74.5361C75.5377 70.7792 75.9882 70.1279 75.9883 69.4268C75.9883 68.7756 75.5377 68.0744 74.5361 68.0742H72.1318ZM21.79 39.7227C21.7901 47.9375 26.4486 52.2949 33.5615 52.2949C40.6241 52.2948 44.6816 47.5367 44.6816 39.7227V13.5752H53.2969V39.7227C53.2968 53.197 45.0322 60.1092 33.5615 60.1094C22.5916 60.1094 13.2745 53.4475 13.2744 39.7227V13.5752H21.79V39.7227ZM92.6689 41.7266V13.4248H101.284V59.1074H95.9248L71.9814 28.3018V59.1074H63.3652V13.4248H70.3281L92.6689 41.7266ZM126.28 59.1074H117.765V21.2383H110.651L118.466 13.4248H126.28V59.1074ZM178.826 21.2383H164.35V59.1074H155.734V21.2383H141.258V13.4248H178.826V21.2383Z" fill="white"/>
</svg>
