<svg width="24" height="24" viewBox="0 0 24 24" fill="none" xmlns="http://www.w3.org/2000/svg">
<path d="M19 14C21.7614 14 24 16.2386 24 19C24 21.7614 21.7614 24 19 24C16.2386 24 14 21.7614 14 19C14 16.2386 16.2386 14 19 14ZM6 4H14V2H16V4H18C19.1046 4 20 4.89543 20 6V12.0723C19.6733 12.0255 19.3396 12 19 12C18.6604 12 18.3267 12.0255 18 12.0723V9H2V20H12.0723C12.1733 20.7062 12.3794 21.3782 12.6748 22H2C0.89543 22 0 21.1046 0 20V6C0 4.89543 0.89543 4 2 4H4V2H6V4ZM21.3242 17.9092C21.0735 17.6584 20.6758 17.6132 20.4043 17.8848L18.9883 19.3008L17.668 17.9805C17.4247 17.7372 17.0127 17.7365 16.7852 17.9785C16.543 18.2207 16.5359 18.6258 16.7793 18.8691C18.3472 20.437 19.0369 21.1258 19.0439 21.1328L21.3486 18.8281C21.6196 18.5567 21.582 18.1672 21.3242 17.9092ZM7 17H5V15H7V17ZM11 17H9V15H11V17ZM7 13H5V11H7V13ZM11 13H9V11H11V13ZM15 13H13V11H15V13Z" fill="white"/>
</svg>
