<svg width="24" height="24" viewBox="0 0 24 24" fill="none" xmlns="http://www.w3.org/2000/svg">
<path fill-rule="evenodd" clip-rule="evenodd" d="M15.3941 18.2472L12 20.3207L8.60593 18.2472L5.21186 16.1738V12.0135V7.85312L8.60593 5.77968L12 3.70624L15.3941 5.77968L18.7881 7.85312V12.0135V16.1738L15.3941 18.2472ZM16.5 3.74663L12 1L7.5 3.7601L3 6.50673V12.0135V17.5202L7.5 20.2534L12 23L16.5 20.2534L21 17.5067V12V6.49327L16.5 3.74663ZM10.1822 15.3525L12 16.47L13.8305 15.3525L15.6483 14.235V13.6561V12.0135V9.77846V7.07221L17.8602 8.43207V12.0135V15.5949L14.9364 17.3856L12 19.1763L9.07627 17.3856L6.13983 15.5949V12.0135V8.43207L8.3517 7.07221V9.77846V12.0135V13.6561V14.235L10.1822 15.3525Z" fill="white"/>
</svg>
