<svg width="24" height="24" viewBox="0 0 24 24" fill="none" xmlns="http://www.w3.org/2000/svg">
<path fill-rule="evenodd" clip-rule="evenodd" d="M11.5426 3.82204C8.87006 1.52573 4.72455 1.91592 2.50473 4.76046C0.847565 6.88399 0.72646 9.78686 2.0754 12H4.6593L4.43887 11.7838C2.87603 10.2512 2.71529 7.74151 4.08144 5.99089C5.69475 3.92355 8.77507 3.76837 10.5508 5.63548L12.0001 7.15922L13.4493 5.63548C15.225 3.76837 18.3054 3.92355 19.9187 5.99089C20.6085 6.87489 20.9091 7.95244 20.8363 9.00001H22.8396C22.9099 7.51627 22.4663 6.00461 21.4954 4.76046C19.2756 1.91592 15.1301 1.52573 12.4576 3.82204C12.2997 3.95768 12.147 4.10271 12.0001 4.25715C11.8532 4.10271 11.7004 3.95768 11.5426 3.82204ZM12.0001 22L5.88173 16H8.73818L12.0001 19.1988L18.3211 13H21.1677C21.101 13.0719 21.0323 13.1425 20.9616 13.2118L12.0001 22ZM8.62223 8.02116C8.80053 7.69427 9.14568 7.49352 9.51797 7.50017C9.89026 7.50681 10.228 7.71975 10.3945 8.05279L12.7741 12.8118L15.293 10.2929C15.4806 10.1054 15.7349 10 16.0001 10H22.0001C22.5524 10 23.0001 10.4477 23.0001 11C23.0001 11.5523 22.5524 12 22.0001 12H16.4143L13.2072 15.2071C12.9799 15.4344 12.6572 15.5386 12.3399 15.4871C12.0226 15.4356 11.7494 15.2347 11.6057 14.9472L9.46158 10.659L7.37802 14.4789C7.20279 14.8001 6.86607 15 6.50013 15L4.00012 15C3.44784 15 3.00012 14.5523 3.00012 14C3.00012 13.4477 3.44784 13 4.00012 13L5.90649 13L8.62223 8.02116Z" fill="white"/>
</svg>
