<svg width="24" height="24" viewBox="0 0 24 24" fill="none" xmlns="http://www.w3.org/2000/svg">
<path fill-rule="evenodd" clip-rule="evenodd" d="M9 7C9 5.34315 10.3431 4 12 4C13.6569 4 15 5.34315 15 7C15 8.65685 13.6569 10 12 10C10.3431 10 9 8.65685 9 7ZM12 2C9.23858 2 7 4.23858 7 7C7 9.76142 9.23858 12 12 12C14.7614 12 17 9.76142 17 7C17 4.23858 14.7614 2 12 2ZM10 13C6.68629 13 4 15.6863 4 19V22H20V19C20 15.6863 17.3137 13 14 13H10ZM6 19C6 16.7909 7.79086 15 10 15H14C16.2091 15 18 16.7909 18 19V20H6V19Z" fill="white"/>
</svg>
